<svg height="512pt" viewBox="0 0 512.00171 512" width="512pt" xmlns="http://www.w3.org/2000/svg"><path d="m417.75 46.347656v97.722656l30.25 26.277344v-124zm0 0" fill="#6d6fab"/><path d="m181 217.515625h255v284.484375h-255zm0 0" fill="#f1f2f2"/><path d="m106 217.515625h396l-198-167.023437zm0 0" fill="#e24050"/><path d="m160 256h72v72h-72zm0 0" fill="#fff"/><path d="m280 256h72v72h-72zm0 0" fill="#fff"/><path d="m160 376h72v72h-72zm0 0" fill="#fff"/><path d="m280 376h72v72h-72zm0 0" fill="#fff"/><g fill="#6d6fab"><path d="m191.5 256h40.5v72h-40.5zm0 0"/><path d="m312 256h40v72h-40zm0 0"/><path d="m191.5 376h40.5v72h-40.5zm0 0"/><path d="m312 376h40v72h-40zm0 0"/></g><path d="m256.128906 207.515625h-.128906c-5.523438 0-10 4.476563-10 10 0 5.519531 4.476562 10 10 10h.128906c5.519532 0 10-4.480469 10-10 0-5.523437-4.480468-10-10-10zm0 0"/><path d="m232 246h-72c-5.519531 0-10 4.476562-10 10v72c0 5.523438 4.480469 10 10 10h72c5.523438 0 10-4.476562 10-10v-72c0-5.523438-4.476562-10-10-10zm-10 72h-52v-52h52zm0 0"/><path d="m352 246h-72c-5.523438 0-10 4.476562-10 10v72c0 5.523438 4.476562 10 10 10h72c5.523438 0 10-4.476562 10-10v-72c0-5.523438-4.476562-10-10-10zm-10 72h-52v-52h52zm0 0"/><path d="m232 366h-72c-5.519531 0-10 4.476562-10 10v72c0 5.523438 4.480469 10 10 10h72c5.523438 0 10-4.476562 10-10v-72c0-5.523438-4.476562-10-10-10zm-10 72h-52v-52h52zm0 0"/><path d="m352 366h-72c-5.523438 0-10 4.476562-10 10v72c0 5.523438 4.476562 10 10 10h72c5.523438 0 10-4.476562 10-10v-72c0-5.523438-4.476562-10-10-10zm-10 72h-52v-52h52zm0 0"/><path d="m502 492h-.136719c-5.523437 0-10 4.476562-10 10s4.476563 10 10 10h.136719c5.523438 0 10-4.476562 10-10s-4.476562-10-10-10zm0 0"/><path d="m472.015625 492h-26.015625v-264.484375h56c4.199219 0 7.953125-2.625 9.394531-6.570313 1.441407-3.941406.265625-8.367187-2.945312-11.074218l-50.449219-42.554688v-120.96875c0-5.523437-4.476562-10-10-10h-57.957031c-5.523438 0-10 4.476563-10 10v55.207032l-117.59375-99.199219c-3.726563-3.140625-9.171875-3.140625-12.898438 0l-245.996093 207.515625c-3.210938 2.707031-4.386719 7.132812-2.945313 11.074218 1.441406 3.945313 5.191406 6.570313 9.390625 6.570313h56v264.484375h-56c-5.523438 0-10 4.476562-10 10s4.476562 10 10 10h462.015625c5.519531 0 10-4.476562 10-10s-4.476563-10-10-10zm-71.972656-435.652344h37.957031v94.097656l-37.957031-32.019531zm-314.042969 435.652344v-264.484375h134.515625c5.523437 0 10-4.480469 10-10 0-5.523437-4.476563-10-10-10h-183.152344l218.636719-184.433594 218.636719 184.433594h-185.636719c-5.523438 0-10 4.476563-10 10 0 5.519531 4.476562 10 10 10h137v264.484375zm0 0"/></svg>