<svg id="Capa_1" enable-background="new 0 0 512 512" height="512" viewBox="0 0 512 512" width="512" xmlns="http://www.w3.org/2000/svg"><g><path d="m338.837 410.058c-4.142 0-7.5 3.357-7.5 7.5s3.358 7.5 7.5 7.5c42.997 0 44.213-20 82.832-20 28.937 0 35.479 10.453 55.7 16.446 3.976 1.176 8.146-1.09 9.322-5.061 1.177-3.972-1.089-8.145-5.06-9.322-17.768-5.263-27.417-17.063-59.962-17.063-42.996 0-44.214 20-82.832 20z"/><path d="m504.5 369.511c-35.985 0-38.031-16.349-72.164-19.527l-29.089-29.089c-1.904-1.903-4.685-2.643-7.282-1.931l-19.161 5.242-13.948-13.948c12.404-17.004 20.564-36.811 23.817-57.547h28.623c4.142 0 7.5-3.357 7.5-7.5s-3.358-7.5-7.5-7.5h-27.14c.147-3.556.152-7.141.002-10.841h22.611c2.694 0 5.18-1.444 6.515-3.784l9.842-17.256h46.18v29.037c0 1.568-1.276 2.844-2.844 2.844h-20.164c-4.142 0-7.5 3.357-7.5 7.5s3.358 7.5 7.5 7.5h20.164c9.839 0 17.844-8.005 17.844-17.844v-36.537c0-4.143-3.358-7.5-7.5-7.5h-58.036c-2.694 0-5.18 1.444-6.515 3.784l-9.842 17.256h-19.719c-3.309-21.256-11.698-40.853-23.883-57.506l59.273-59.273c6.957-6.957 6.957-18.278 0-25.236l-25.836-25.835c-2.927-2.927-7.678-2.928-10.606 0l-41.038 41.038c-1.905 1.905-2.642 4.685-1.931 7.283l5.242 19.16-13.986 13.986c-16.654-12.183-36.252-20.57-57.508-23.877v-83.766c0-9.839-8.005-17.844-17.844-17.844h-36.537c-4.142 0-7.5 3.357-7.5 7.5v58.036c0 2.693 1.444 5.181 3.784 6.515l17.255 9.842v19.744c-20.895 3.291-40.604 11.56-57.5 23.865l-59.281-59.281c-6.957-6.957-18.277-6.955-25.234 0l-25.835 25.836c-2.927 2.928-2.929 7.678 0 10.607l41.038 41.037c1.904 1.903 4.685 2.64 7.282 1.931l19.161-5.242 13.948 13.949c-2.776 3.793-5.362 7.753-7.742 11.871-2.073 3.587-.845 8.174 2.741 10.246 3.584 2.072 8.173.846 10.247-2.74 20.917-36.194 59.849-58.679 101.604-58.679 64.659 0 117.262 52.604 117.262 117.263 0 52.384-33.79 97.106-82.59 112.063-.546-6.839-.406-5.087-.818-10.255 44.158-14.656 73.403-56.145 73.403-101.694 0-56.563-45.165-107.439-108.023-107.439-61.91 0-106.656 52.116-106.656 108 0 45.255 30.012 86.677 73.569 101.133-.64 8.027-.431 5.405-.818 10.255-59.88-18.354-93.677-79.846-79.358-139.525.966-4.028-1.516-8.077-5.543-9.043-4.023-.97-8.076 1.516-9.042 5.543-.835 3.48-1.528 7-2.077 10.548h-83.765c-9.839 0-17.844 8.005-17.844 17.844v36.537c0 4.143 3.358 7.5 7.5 7.5h58.036c2.694 0 5.18-1.444 6.515-3.784l9.842-17.256h19.741c3.256 20.736 11.417 40.542 23.823 57.545l-40.705 40.705c-5.2-.912-11.149-1.465-18.123-1.465-42.999 0-44.217 20-82.837 20-4.142 0-7.5 3.357-7.5 7.5v127.488c0 4.143 3.358 7.5 7.5 7.5h497c4.142 0 7.5-3.357 7.5-7.5v-127.489c0-4.143-3.358-7.5-7.5-7.5zm-7.5 14.772v58.026h-198.507l-5.514-69.114c14.947 7.199 25.444 11.315 45.858 11.315 42.761 0 44.537-19.858 82.388-19.999 37.089-.123 39.178 17.479 75.775 19.772zm-328.436-14.866-4.465-16.321 13.965-13.965c11.385 8.308 24.056 14.79 37.48 19.115-11.9 5.55-20.823 11.265-42.369 11.265-1.605 0-3.14-.032-4.611-.094zm18.493-75.825 23.016-23.016c2.306 2.774 4.865 5.347 7.653 7.679l-23.012 23.011c-2.704-2.41-5.26-4.973-7.657-7.674zm-21.024-40.866h33.773c.605 1.656 1.282 3.283 2.028 4.876l-23.874 23.874c-5.518-8.756-9.588-18.463-11.927-28.75zm11.926-69.586 23.847 23.847c-.748 1.595-1.428 3.229-2.035 4.897h-33.751c2.346-10.344 6.434-20.034 11.939-28.744zm16.779-19.767 22.988 22.989c-2.779 2.32-5.345 4.887-7.665 7.666l-22.989-22.989c2.404-2.702 4.964-5.262 7.666-7.666zm130.194 7.657-22.989 22.989c-2.32-2.779-4.887-5.346-7.667-7.665l22.989-22.989c2.703 2.403 5.263 4.963 7.667 7.665zm21.058 40.841h-33.753c-.608-1.668-1.288-3.301-2.036-4.896l23.846-23.846c5.506 8.709 9.596 18.398 11.943 28.742zm-11.929 69.593-23.875-23.875c.746-1.593 1.422-3.22 2.027-4.876h33.771c-2.338 10.287-6.407 19.995-11.923 28.751zm-16.752 19.793-23.011-23.011c2.787-2.332 5.346-4.906 7.65-7.68l23.016 23.016c-2.395 2.702-4.951 5.265-7.655 7.675zm16.652 37.866 27.508 27.508c-5.959 1.74-13.067 2.88-22.632 2.88-21.22 0-29.997-5.495-42.369-11.264 13.43-4.327 26.104-10.812 37.493-19.124zm-97.184-106.831c0-10.6 8.624-19.224 19.223-19.224s19.223 8.624 19.223 19.224-8.623 19.223-19.223 19.223-19.223-8.623-19.223-19.223zm78.804 5.42c.33-3.601.329-7.237.003-10.841h32.527c.205 3.524.216 7.144 0 10.841zm-34.264-59.614c-1.595-.748-3.228-1.427-4.896-2.034v-33.752c10.344 2.345 20.034 6.434 28.743 11.939zm19.512 54.201c0 13.523-6.167 26.185-16.33 34.592l-1.124-14.083c4.299-5.721 6.849-12.826 6.849-20.516 0-18.871-15.353-34.224-34.223-34.224s-34.223 15.353-34.223 34.224c0 7.697 2.555 14.809 6.861 20.532l-1.122 14.067c-10.164-8.407-16.331-21.07-16.331-34.592 0-24.715 20.107-44.822 44.822-44.822 24.714 0 44.821 20.107 44.821 44.822zm-70.146-54.194-23.846-23.846c8.709-5.507 18.398-9.596 28.742-11.943v33.753c-1.668.608-3.301 1.287-4.896 2.036zm-34.255 48.78c-.325 3.602-.325 7.235.006 10.841h-32.53c-.211-3.6-.213-7.22-.002-10.841zm46.376 36.983c8.22 3.448 17.787 3.614 26.405-.005 2.093 26.233 12.572 157.587 14.237 178.447h-54.879c16.415-205.75 9.472-118.724 14.237-178.442zm133.757 75.957 19.161-5.242 15.391 15.391c-4.971.457-9.848 1.277-14.631 2.561-7.694 2.064-13.308 4.741-19.95 7.945l-30.917-30.917c2.657-2.444 5.217-4.999 7.672-7.66l15.991 15.991c1.904 1.904 4.685 2.64 7.283 1.931zm-14.958-220.798c1.905-1.905 2.642-4.685 1.931-7.283l-5.242-19.16 32.654-32.654 20.532 20.532c1.109 1.109 1.109 2.914 0 4.022l-58.24 58.24c-2.45-2.658-5.008-5.215-7.666-7.666zm-218.868 7.675c-1.905-1.903-4.686-2.643-7.282-1.931l-19.161 5.242-32.654-32.653 20.532-20.532c1.109-1.109 2.914-1.109 4.022 0l58.224 58.224c-2.657 2.44-5.219 4.993-7.678 7.653zm107.844-26.553v-22.613c0-2.693-1.444-5.181-3.784-6.515l-17.255-9.841v-46.18h29.037c1.568 0 2.844 1.275 2.844 2.844v82.302c-3.643-.147-7.239-.147-10.842.003zm38.047 218.485-2.154-27 18.74 18.74c-5.181 3.271-10.728 6.049-16.586 8.26zm-27.205-178.441v32.526c-3.537-.319-7.177-.33-10.842.001v-32.527c3.532-.204 7.153-.214 10.842 0zm-54.608 170.188 18.726-18.726-2.152 26.979c-5.853-2.209-11.397-4.985-16.574-8.253zm-105.569-72.655c-2.694 0-5.18 1.444-6.515 3.784l-9.842 17.256h-46.179v-29.037c0-1.568 1.276-2.844 2.844-2.844h82.302c-.148 3.653-.147 7.226.002 10.841zm23.717 117.962 33.774-33.774c2.456 2.66 5.016 5.215 7.673 7.658l-15.997 15.997c-1.905 1.905-2.642 4.685-1.931 7.283l3.909 14.289c-10.647-2.767-17.538-7.464-27.428-11.453zm372.039 141.312h-482v-39.69h35.604c4.142 0 7.5-3.357 7.5-7.5s-3.358-7.5-7.5-7.5h-35.604v-58.026c36.728-2.301 38.473-19.772 75.337-19.772 39.234 0 39.172 20 82.837 20 20.59 0 31.499-4.399 45.86-11.317l-2.235 28.02c-12.461 5.68-21.296 11.844-43.625 11.844-38.785 0-39.633-20-82.837-20-4.142 0-7.5 3.357-7.5 7.5s3.358 7.5 7.5 7.5c38.785 0 39.633 20 82.837 20 20.703 0 32.37-4.866 42.247-9.577l-1.901 23.829h-127.916c-4.142 0-7.5 3.357-7.5 7.5s3.358 7.5 7.5 7.5h411.396z"/><circle cx="256" cy="232.292" r="7.5"/><path d="m256 353.241c-4.142 0-7.5 3.357-7.5 7.5v63.632c0 4.143 3.358 7.5 7.5 7.5s7.5-3.357 7.5-7.5v-63.632c0-4.142-3.358-7.5-7.5-7.5z"/></g></svg>