<svg id="Capa_1" enable-background="new 0 0 512 512" height="512" viewBox="0 0 512 512" width="512" xmlns="http://www.w3.org/2000/svg"><g><path d="m115 402c-20.881 0-39.795 11.85-49.066 30.116-36.714 2.113-65.934 32.65-65.934 69.884 0 5.522 4.477 10 10 10h492c5.523 0 10-4.478 10-10v-45c0-30.327-24.673-55-55-55-22.587 0-42.628 14.058-50.931 34.258-4.545-1.663-9.262-2.838-14.069-3.53v-292.728h20c5.523 0 10-4.478 10-10v-120c0-5.522-4.477-10-10-10h-60c-5.523 0-10 4.478-10 10v50h-46v-50c0-5.522-4.477-10-10-10h-60c-5.523 0-10 4.478-10 10v50h-46v-50c0-5.522-4.477-10-10-10h-60c-5.523 0-10 4.478-10 10v120c0 5.522 4.477 10 10 10h20v262.23c-1.655-.15-3.322-.23-5-.23zm-93.996 90c4.646-22.794 24.85-40.06 48.996-40.06.729 0 1.459.018 2.18.043 4.391.18 8.34-2.485 9.793-6.613 4.92-13.978 18.193-23.37 33.027-23.37 15.3 0 28.276 9.886 33.028 23.373 1.454 4.126 5.412 6.807 9.792 6.61.721-.025 1.45-.043 2.18-.043 24.311 0 48.828 17.261 54.709 40.06zm284.996 0h-70.87c-2.967-17.241-13.453-33.397-29.13-44.731v-35.269c0-27.57 22.43-50 50-50s50 22.43 50 50zm101.394-33.076c2.865 1.698 6.387 1.857 9.393.427 3.007-1.431 5.104-4.264 5.595-7.558 2.529-16.984 17.411-29.793 34.618-29.793 19.299 0 35 15.701 35 35v35h-164.771c5.846-23.458 31.519-40 54.771-40 8.966 0 17.747 2.395 25.394 6.924zm-196.394-318.924c5.523 0 10-4.478 10-10s-4.477-10-10-10h-101v-100h40v50c0 5.522 4.477 10 10 10h66c5.523 0 10-4.478 10-10v-50h40v50c0 5.522 4.477 10 10 10h66c5.523 0 10-4.478 10-10v-50h40v100h-101c-5.523 0-10 4.478-10 10s4.477 10 10 10h71v292.705c-16.727 2.313-33.307 10.318-46 23.089v-43.794c0-38.598-31.402-70-70-70s-70 31.402-70 70v24.668c-7.149-2.597-14.547-4.141-21.951-4.554-5.268-10.305-13.771-18.808-24.049-24.086v-268.028z"/><path d="m196 296h120c5.523 0 10-4.478 10-10s-4.477-10-10-10h-20v-50c0-22.056-17.944-40-40-40s-40 17.944-40 40v50h-20c-5.523 0-10 4.478-10 10s4.477 10 10 10zm40-70c0-11.028 8.972-20 20-20s20 8.972 20 20v50h-40z"/><circle cx="256" cy="129.999" r="10"/></g></svg>