<?xml version="1.0" encoding="iso-8859-1"?>
<!-- Generator: Adobe Illustrator 19.0.0, SVG Export Plug-In . SVG Version: 6.00 Build 0)  -->
<svg version="1.1" id="Capa_1" xmlns="http://www.w3.org/2000/svg" xmlns:xlink="http://www.w3.org/1999/xlink" x="0px" y="0px"
	 viewBox="0 0 512 512" style="enable-background:new 0 0 512 512;" xml:space="preserve">
<g>
	<g>
		<path d="M111.708,248.5H95.676c-4.142,0-7.5,3.358-7.5,7.5c0,4.142,3.358,7.5,7.5,7.5h16.032c4.142,0,7.5-3.358,7.5-7.5
			C119.208,251.858,115.851,248.5,111.708,248.5z"/>
	</g>
</g>
<g>
	<g>
		<path d="M357.496,82.358c-2.929-2.929-7.678-2.929-10.606,0l-8.016,8.016c-2.929,2.929-2.929,7.678,0,10.606
			c1.464,1.464,3.384,2.197,5.303,2.197s3.839-0.732,5.303-2.197l8.016-8.016C360.424,90.035,360.424,85.286,357.496,82.358z"/>
	</g>
</g>
<g>
	<g>
		<path d="M416.322,216.436h-46.023l51.326-51.326c2.929-2.929,2.929-7.678,0-10.606c-2.929-2.929-7.678-2.929-10.606,0
			l-27.278,27.278v-21.975c0-4.142-3.358-7.5-7.5-7.5c-4.142,0-7.5,3.358-7.5,7.5v36.975l-90.826,90.825l-4.896-110.166
			l27.068-27.068l22.754,22.754c1.464,1.464,3.384,2.197,5.303,2.197s3.839-0.732,5.303-2.197c2.929-2.929,2.929-7.678,0-10.606
			l-22.754-22.754l17.117-17.117c2.929-2.929,2.929-7.678,0-10.606c-2.929-2.929-7.678-2.929-10.606,0l-45.088,45.088l-0.601-13.525
			V74.735L309.4,36.852c2.929-2.929,2.929-7.678,0-10.606c-2.929-2.929-7.678-2.929-10.606,0l-27.277,27.277V7.5
			c0-4.142-3.358-7.5-7.5-7.5c-4.142,0-7.5,3.358-7.5,7.5v21.974l-11.245-11.245c-2.929-2.929-7.678-2.929-10.606,0
			c-2.929,2.929-2.929,7.678,0,10.606l21.852,21.852v74.981l-67.36-67.358c-2.929-2.929-7.678-2.929-10.606,0
			c-2.929,2.929-2.929,7.678,0,10.606l19.261,19.261h-29.99c-4.142,0-7.5,3.358-7.5,7.5c0,4.142,3.358,7.5,7.5,7.5h44.99
			l43.564,43.564l-3.532,79.464l-21.409-21.409v-44.99c0-4.142-3.358-7.5-7.5-7.5c-4.142,0-7.5,3.358-7.5,7.5v29.99l-19.261-19.261
			c-2.929-2.929-7.678-2.929-10.606,0c-2.929,2.929-2.929,7.678,0,10.606l65.374,65.374l-3.191,71.789l-89.46-89.459V191.87
			c0-4.142-3.358-7.5-7.5-7.5c-4.142,0-7.5,3.358-7.5,7.5v21.975l-27.278-27.278c-2.929-2.929-7.678-2.929-10.606,0
			c-2.929,2.929-2.929,7.678,0,10.606l51.326,51.326h-13.958c-4.142,0-7.5,3.358-7.5,7.5c0,4.142,3.358,7.5,7.5,7.5h28.958
			l75.115,75.115L240.806,497h-8.855c-4.142,0-7.5,3.358-7.5,7.5c0,4.142,3.358,7.5,7.5,7.5h64.129c4.142,0,7.5-3.358,7.5-7.5
			c0-4.142-3.358-7.5-7.5-7.5h-8.859l-8.403-189.083l37.303-37.302l22.753,22.753c1.464,1.464,3.384,2.197,5.303,2.197
			s3.839-0.732,5.303-2.197c2.929-2.929,2.929-7.678,0-10.606l-22.753-22.753l28.573-28.573h61.023c4.142,0,7.5-3.358,7.5-7.5
			C423.824,219.794,420.465,216.436,416.322,216.436z M255.822,497l8.193-184.32L272.207,497H255.822z"/>
	</g>
</g>
<g>
</g>
<g>
</g>
<g>
</g>
<g>
</g>
<g>
</g>
<g>
</g>
<g>
</g>
<g>
</g>
<g>
</g>
<g>
</g>
<g>
</g>
<g>
</g>
<g>
</g>
<g>
</g>
<g>
</g>
</svg>
